<?xml version="1.0" encoding="UTF-8"?>
<svg version="1.1" xmlns="http://www.w3.org/2000/svg" width="512" height="512">
<path d="M0 0 C1.83256348 0.00737183 1.83256348 0.00737183 3.70214844 0.01489258 C40.75734381 0.49165182 73.8163641 16.37409964 99.82397461 42.453125 C125.6468896 69.27777294 136.93014135 104.68979429 136.52734375 141.3125 C135.88953671 166.15924382 127.85406419 192.06895318 113.3125 212.3125 C112.60867188 213.31152344 111.90484375 214.31054688 111.1796875 215.33984375 C103.28542359 226.08698521 93.93158424 236.20154232 83.3125 244.3125 C88.07046387 246.74255612 92.84270348 249.00807839 97.75683594 251.10180664 C122.82793232 261.83915582 122.82793232 261.83915582 129.6875 273.6875 C131.3396029 280.62633216 130.63663762 286.99797351 127.3125 293.3125 C124.14213908 297.89191022 120.69465651 301.576011 115.3125 303.3125 C105.53727995 304.98863513 98.5067565 302.08973877 90.16455078 297.35205078 C76.16146311 289.49215791 61.74580587 283.53499093 46.1875 279.5625 C45.4130957 279.36374268 44.63869141 279.16498535 43.84082031 278.96020508 C30.92882602 275.82884513 18.16320005 274.90438889 4.9375 274.9375 C4.15313568 274.93771149 3.36877136 274.93792297 2.56063843 274.93814087 C-11.1617398 274.97487222 -24.29702326 276.15078641 -37.6875 279.3125 C-38.43870117 279.48378418 -39.18990234 279.65506836 -39.96386719 279.83154297 C-69.78948941 286.87201298 -96.61109935 303.42455158 -118.6875 324.3125 C-119.50863281 325.08078125 -120.32976562 325.8490625 -121.17578125 326.640625 C-154.25566233 358.5372444 -169.63583706 403.15614145 -171.8828125 448.23046875 C-172.28002211 455.73427633 -172.87141535 461.80416411 -178.625 467.09375 C-185.69181283 472.60170706 -191.83429432 473.05637882 -200.6875 472.3125 C-206.65642802 470.65182845 -210.21474652 467.3173506 -213.6875 462.3125 C-216.33174865 456.72556132 -216.03036505 451.45285114 -216 445.375 C-215.99262817 443.63923706 -215.99262817 443.63923706 -215.98510742 441.8684082 C-215.2119752 383.99450544 -188.32571865 329.88096074 -147.39453125 289.828125 C-143.00598114 285.74987642 -138.39865374 282.00904313 -133.6875 278.3125 C-132.73746094 277.53390625 -131.78742188 276.7553125 -130.80859375 275.953125 C-95.09902468 247.3125 -95.09902468 247.3125 -79.6875 247.3125 C-82.80503634 244.14300472 -85.99282157 241.09549514 -89.29174805 238.1159668 C-100.18559919 228.24669682 -109.00040425 217.83175611 -116.6875 205.3125 C-117.05262695 204.71840332 -117.41775391 204.12430664 -117.79394531 203.51220703 C-128.7841486 185.24086721 -134.77136436 163.55018991 -135.6875 142.3125 C-135.74035156 141.29542969 -135.79320312 140.27835938 -135.84765625 139.23046875 C-136.7746593 105.25379166 -124.63395559 73.00902955 -102.6875 47.3125 C-101.67623047 46.10013672 -101.67623047 46.10013672 -100.64453125 44.86328125 C-75.73281756 15.95843313 -37.90780824 -0.18229989 0 0 Z M-67.20703125 72.77734375 C-84.81537296 91.28560071 -92.23546836 115.24338673 -91.90234375 140.31640625 C-91.25255556 161.33967755 -82.69752992 181.69354438 -68.6875 197.3125 C-67.87539062 198.21871094 -67.06328125 199.12492188 -66.2265625 200.05859375 C-52.47579912 214.5956911 -34.38111982 223.88394502 -14.6875 227.3125 C-12.769375 227.6528125 -12.769375 227.6528125 -10.8125 228 C15.84640381 230.61580058 40.21716489 223.14244796 60.9375 206.1875 C77.98148483 191.61154951 89.62979521 170.66837323 92.3125 148.3125 C92.94616737 135.4716024 93.19679551 122.67162208 89.3125 110.3125 C89.11914062 109.68472656 88.92578125 109.05695313 88.7265625 108.41015625 C84.0443822 93.58325197 76.33883672 81.33883672 65.3125 70.3125 C64.54292969 69.54292969 63.77335938 68.77335937 62.98046875 67.98046875 C25.11202259 32.06968055 -31.57398885 37.91773173 -67.20703125 72.77734375 Z " fill="#000000" transform="translate(244.6875,19.6875)"/>
<path d="M0 0 C5.09620539 3.01237564 8.70841667 7.93775001 10.5625 13.5 C10.64972452 15.11095858 10.68017272 16.72531016 10.67602539 18.33862305 C10.67591209 19.80980843 10.67591209 19.80980843 10.67579651 21.31071472 C10.67063522 22.36704605 10.66547394 23.42337738 10.66015625 24.51171875 C10.6587413 25.59508011 10.65732635 26.67844147 10.65586853 27.79463196 C10.65026559 31.25894925 10.63771258 34.7232022 10.625 38.1875 C10.61998538 40.53450428 10.61542241 42.88150956 10.61132812 45.22851562 C10.60029521 50.98569908 10.5835542 56.74284494 10.5625 62.5 C11.15861084 62.49111755 11.75472168 62.48223511 12.36889648 62.4730835 C18.59853483 62.38427928 24.82799202 62.32412895 31.05810547 62.28027344 C33.38011993 62.26021423 35.70208423 62.23296009 38.02392578 62.19824219 C41.37024345 62.14947459 44.71589059 62.12697357 48.0625 62.109375 C49.0930249 62.08872986 50.1235498 62.06808472 51.18530273 62.04681396 C58.53785218 62.0445482 64.26974168 63.24473039 69.62109375 68.53515625 C70.07613281 69.20417969 70.53117188 69.87320313 71 70.5625 C71.47308594 71.23410156 71.94617188 71.90570313 72.43359375 72.59765625 C75.66016316 78.03481646 75.06856771 84.3982693 74.5625 90.5 C72.89553009 96.72603218 68.84056217 100.96088175 63.5625 104.5 C60.60851242 105.48466253 58.71000978 105.62127836 55.63208008 105.61352539 C54.63126907 105.61344986 53.63045807 105.61337433 52.59931946 105.61329651 C51.52111435 105.60813522 50.44290924 105.60297394 49.33203125 105.59765625 C48.22647385 105.5962413 47.12091644 105.59482635 45.9818573 105.59336853 C42.44621083 105.58776514 38.91062738 105.57521204 35.375 105.5625 C32.97981862 105.55748544 30.58463625 105.55292246 28.18945312 105.54882812 C22.31378053 105.53779461 16.43814477 105.52105316 10.5625 105.5 C10.57138245 106.09611084 10.58026489 106.69222168 10.5894165 107.30639648 C10.67822072 113.53603483 10.73837105 119.76549202 10.78222656 125.99560547 C10.80228577 128.31761993 10.82953991 130.63958423 10.86425781 132.96142578 C10.91302541 136.30774345 10.93552643 139.65339059 10.953125 143 C10.98409271 144.54578735 10.98409271 144.54578735 11.01568604 146.12280273 C11.0176319 152.43727392 10.23360292 157.2490625 6.5625 162.5 C4.30859375 164.55859375 4.30859375 164.55859375 2 165.9375 C1.23558594 166.41058594 0.47117187 166.88367188 -0.31640625 167.37109375 C-5.52112906 170.14119484 -10.67954714 170.15482601 -16.4375 169.5 C-23.56147596 167.25931362 -27.7477019 163.92739024 -31.4375 157.5 C-32.41389431 154.57081707 -32.55886181 152.70974262 -32.55102539 149.66137695 C-32.55091209 148.19019157 -32.55091209 148.19019157 -32.55079651 146.68928528 C-32.54563522 145.63295395 -32.54047394 144.57662262 -32.53515625 143.48828125 C-32.5337413 142.40491989 -32.53232635 141.32155853 -32.53086853 140.20536804 C-32.52526559 136.74105075 -32.51271258 133.2767978 -32.5 129.8125 C-32.49498538 127.46549572 -32.49042241 125.11849044 -32.48632812 122.77148438 C-32.47529521 117.01430092 -32.4585542 111.25715506 -32.4375 105.5 C-33.37591232 105.50999275 -33.37591232 105.50999275 -34.33328247 105.52018738 C-40.85462293 105.58664563 -47.3758669 105.63184426 -53.89746094 105.66479492 C-56.33011789 105.67986534 -58.76274774 105.70032523 -61.1953125 105.72631836 C-64.69538061 105.7627774 -68.1950889 105.7797442 -71.6953125 105.79296875 C-73.32220505 105.81619453 -73.32220505 105.81619453 -74.98196411 105.83988953 C-81.4990515 105.84133644 -86.22477502 105.39694432 -91.265625 100.8515625 C-91.96945312 99.99691406 -91.96945312 99.99691406 -92.6875 99.125 C-93.40679687 98.27808594 -93.40679687 98.27808594 -94.140625 97.4140625 C-98.31726489 91.2497446 -98.14184139 84.69993424 -97.4375 77.5 C-95.87278724 72.12077125 -93.21765904 68.50149521 -88.4375 65.5 C-82.25489792 62.17962857 -76.97248112 62.10331591 -70.03515625 62.20703125 C-68.95745468 62.21127609 -67.87975311 62.21552094 -66.76939392 62.21989441 C-63.34600254 62.23661281 -59.9232118 62.27425317 -56.5 62.3125 C-54.17123249 62.32755564 -51.84245571 62.3412425 -49.51367188 62.35351562 C-43.82141156 62.38649392 -38.12949871 62.43662517 -32.4375 62.5 C-32.44638245 61.90388916 -32.45526489 61.30777832 -32.4644165 60.69360352 C-32.55322072 54.46396517 -32.61337105 48.23450798 -32.65722656 42.00439453 C-32.67728577 39.68238007 -32.70453991 37.36041577 -32.73925781 35.03857422 C-32.78802541 31.69225655 -32.81052643 28.34660941 -32.828125 25 C-32.84877014 23.9694751 -32.86941528 22.9389502 -32.89068604 21.87719727 C-32.8929518 14.52464782 -31.69276961 8.79275832 -26.40234375 3.44140625 C-25.39880859 2.75884766 -25.39880859 2.75884766 -24.375 2.0625 C-23.36759766 1.35287109 -23.36759766 1.35287109 -22.33984375 0.62890625 C-16.14063613 -3.04988431 -6.51868488 -2.86771602 0 0 Z " fill="#000000" transform="translate(408.4375,320.5)"/>
</svg>
