<svg xmlns="http://www.w3.org/2000/svg" width="512" height="512" viewBox="0 0 512 512">
<g>
<path d="M 330.44 352.78 L 328.89 355.00 L 205.15 355.00 L 203.07 352.37 C201.37,350.21 201.00,348.31 201.00,341.87 L 201.00 334.00 L 192.57 334.00 C191.32,334.00 190.19,334.08 189.17,334.15 C187.13,334.29 185.54,334.40 184.30,333.79 C179.89,331.63 179.91,320.42 179.98,269.31 C179.99,262.13 180.00,254.16 180.00,245.32 L 180.00 161.91 L 184.91 157.00 L 245.95 157.00 C252.18,157.00 257.82,156.99 262.92,156.98 C299.22,156.92 308.41,156.90 310.56,160.79 C311.29,162.10 311.21,163.87 311.10,166.24 C311.05,167.22 311.00,168.30 311.00,169.50 L 311.00 178.00 L 319.50 178.00 C320.83,178.00 322.02,177.91 323.08,177.82 C325.07,177.67 326.62,177.55 327.83,178.13 C332.12,180.21 332.10,191.17 332.02,240.99 C332.01,248.50 332.00,256.90 332.00,266.28 C332.00,340.94 331.82,350.81 330.44,352.78 ZM 405.00 174.95 C399.01,176.38 393.25,176.97 385.50,176.94 C340.47,176.74 304.04,140.43 304.01,95.71 C303.99,73.18 312.33,52.67 327.79,37.21 C335.26,29.74 340.74,25.98 351.74,20.77 C356.56,18.49 362.15,15.35 364.17,13.79 C371.15,8.41 376.69,6.57 386.00,6.57 C395.40,6.57 400.99,8.45 407.91,13.93 C409.98,15.57 414.24,17.87 417.39,19.04 C424.25,21.61 435.77,29.17 442.10,35.26 C466.07,58.30 474.16,92.50 462.94,123.31 C453.66,148.79 431.39,168.64 405.00,174.95 ZM 142.79 504.42 C133.56,506.31 118.87,506.32 110.24,504.43 C79.50,497.69 54.58,474.15 47.07,444.75 C36.96,405.18 57.21,364.10 94.52,348.50 C98.36,346.90 103.29,344.09 105.48,342.25 C111.13,337.51 121.39,334.56 129.54,335.32 C137.01,336.02 142.11,337.97 147.31,342.14 C149.40,343.82 153.87,346.31 157.24,347.68 C175.82,355.23 193.51,372.33 201.56,390.54 C212.71,415.76 210.28,446.16 195.31,468.72 C183.16,487.02 163.98,500.06 142.79,504.42 ZM 193.00 170.00 L 193.00 322.00 L 297.98 322.00 L 298.24 246.00 L 298.50 170.00 L 245.75 170.00 ZM 287.97 443.49 C282.76,443.82 277.38,444.24 276.00,444.43 C271.04,445.09 267.00,442.14 267.00,437.87 C267.00,433.90 269.94,432.39 280.29,431.05 C305.84,427.75 331.81,417.69 355.59,401.90 C370.71,391.85 391.85,370.71 401.89,355.60 C417.04,332.79 426.37,309.12 430.52,283.00 C432.42,271.07 433.22,253.03 432.29,243.00 L 431.50 234.50 L 427.35 234.83 C424.89,235.02 421.93,234.50 420.10,233.55 C414.72,230.77 415.61,228.02 429.02,205.96 C435.64,195.09 441.75,185.93 442.60,185.60 C447.10,183.87 448.76,185.10 467.33,203.90 C487.19,224.01 488.28,225.72 484.00,230.00 C482.56,231.44 480.67,232.00 477.25,232.00 L 472.50 232.00 L 472.30 245.76 C471.26,319.05 430.04,386.23 364.87,420.88 C341.31,433.40 312.21,441.96 287.97,443.49 ZM 69.25 326.93 C67.96,327.52 66.81,327.98 66.70,327.96 C64.81,327.63 59.17,322.37 44.48,307.22 C26.06,288.23 24.60,285.98 28.30,282.27 C29.15,281.42 32.13,280.50 34.93,280.23 L 40.00 279.75 L 40.00 267.92 C40.00,232.96 50.37,196.35 69.00,165.50 C90.57,129.79 125.19,99.83 163.00,84.17 C182.64,76.03 201.92,71.08 221.86,69.05 C238.90,67.32 242.67,67.56 244.60,70.51 C245.98,72.62 246.04,73.48 245.00,76.00 C243.57,79.45 242.55,79.79 224.36,82.89 C177.10,90.96 134.08,119.65 107.55,160.80 C96.36,178.14 86.27,203.83 82.37,224.85 C80.62,234.33 79.35,266.18 80.44,273.44 L 81.12 278.00 L 87.00 278.00 C91.95,278.00 93.13,278.35 94.44,280.22 C95.30,281.44 96.00,283.08 96.00,283.85 C96.00,286.62 71.65,325.84 69.25,326.93 ZM 372.00 163.51 C384.16,165.95 397.61,164.99 408.54,160.90 L 414.00 158.86 L 414.01 146.68 C414.03,132.16 414.91,129.64 420.11,129.20 C425.36,128.76 426.41,130.68 427.00,141.76 L 427.50 151.21 L 437.23 142.63 L 436.81 130.56 C436.42,119.50 436.12,117.95 433.19,111.86 C427.27,99.53 416.91,90.74 404.54,87.54 C396.63,85.50 375.47,85.47 367.69,87.49 C351.40,91.74 339.69,103.33 335.36,119.50 C334.63,122.25 334.02,128.55 334.01,133.50 L 334.00 142.50 L 338.94 146.75 C341.65,149.09 344.13,151.00 344.44,151.00 C344.75,151.00 345.00,146.87 345.00,141.83 C345.00,131.55 346.21,129.00 351.10,129.00 C356.02,129.00 357.00,131.84 357.00,146.11 L 357.00 158.78 L 361.25 160.49 C363.59,161.43 368.42,162.79 372.00,163.51 ZM 116.00 492.87 C127.08,494.68 137.45,493.70 148.75,489.79 L 155.00 487.63 L 155.00 474.64 C155.00,460.36 155.84,457.99 160.90,458.02 C165.90,458.04 166.46,459.18 167.00,470.21 L 167.50 480.50 L 178.00 470.73 L 178.00 462.91 C178.00,448.09 174.00,437.24 165.20,428.21 C155.84,418.59 145.17,415.00 126.00,415.00 C107.08,415.00 98.96,417.61 88.69,427.00 C78.92,435.93 74.84,446.03 74.63,461.80 L 74.50 471.25 L 84.50 480.06 L 85.00 470.68 C85.56,460.08 86.63,458.00 91.50,458.00 C96.66,458.00 97.30,459.67 97.80,474.52 L 98.26 487.92 L 104.38 489.95 C107.75,491.06 112.97,492.37 116.00,492.87 ZM 214.00 334.00 L 214.00 343.00 L 319.00 343.00 L 319.00 190.00 L 311.00 190.00 L 311.00 259.37 C311.00,328.03 310.98,328.76 308.93,331.37 L 306.85 334.00 ZM 396.07 383.39 C393.26,387.54 411.27,369.35 417.25,362.00 C445.48,327.25 459.92,285.61 459.98,238.83 C460.00,223.25 460.01,223.16 462.52,221.33 L 465.04 219.50 L 446.42 200.96 L 440.19 211.23 L 433.96 221.50 L 437.00 221.81 C441.58,222.29 442.69,225.10 444.04,239.50 C448.48,287.15 432.89,337.91 402.30,375.39 C399.66,378.62 396.86,382.22 396.07,383.39 ZM 56.29 301.75 C61.33,306.84 65.53,311.00 65.61,311.00 C65.69,311.00 68.34,306.67 71.49,301.38 C76.01,293.81 76.94,291.58 75.87,290.90 C75.12,290.42 73.95,290.02 73.27,290.02 C70.62,289.98 69.10,285.16 67.94,273.00 C63.25,224.22 80.18,170.79 112.08,133.69 C119.79,124.72 115.33,127.89 104.89,138.79 C75.85,169.12 57.51,208.53 53.04,250.21 C52.47,255.55 52.00,266.44 52.00,274.41 C52.00,288.62 51.95,288.94 49.56,290.70 L 47.12 292.50 ZM 318.96 115.25 C320.12,118.96 321.42,122.00 321.83,122.00 C322.25,122.00 323.10,119.57 323.72,116.59 C328.22,95.13 348.64,77.00 371.23,74.41 L 376.97 73.75 L 371.23 71.01 C359.27,65.30 351.85,53.86 351.77,41.02 L 351.72 34.05 L 348.64 35.78 C346.95,36.72 341.67,41.33 336.93,46.00 C329.80,53.02 327.49,56.11 323.73,63.69 C317.58,76.07 315.57,85.43 316.28,98.41 C316.61,104.45 317.68,111.21 318.96,115.25 ZM 447.77 116.55 L 449.50 123.14 L 450.78 120.00 C455.36,108.79 456.59,90.28 453.53,78.50 C451.35,70.07 444.99,57.57 439.28,50.50 C434.89,45.06 423.07,35.00 421.08,35.00 C420.63,35.00 420.05,38.08 419.78,41.84 C418.87,54.53 411.84,65.42 401.10,70.79 L 395.37 73.66 L 402.66 74.71 C414.12,76.36 423.71,81.45 432.91,90.77 C441.19,99.15 444.90,105.58 447.77,116.55 ZM 189.00 448.55 C189.00,453.08 190.89,451.06 193.01,444.25 C196.27,433.79 196.78,418.51 194.20,408.31 C190.67,394.35 185.80,385.76 175.53,375.38 C170.56,370.36 165.13,365.56 163.46,364.71 L 160.42 363.16 L 160.35 369.92 C160.24,382.56 152.48,394.36 140.50,400.12 L 134.50 403.00 L 138.50 403.01 C152.92,403.06 172.32,414.47 181.03,428.05 C184.70,433.77 189.00,444.82 189.00,448.55 ZM 60.08 445.75 L 62.27 452.33 L 64.07 445.26 C66.25,436.67 68.39,432.33 74.45,424.28 C82.49,413.59 95.76,405.78 109.50,403.65 L 117.01 402.49 L 112.25 400.31 C100.61,394.96 93.17,384.07 92.23,371.01 C91.96,367.15 91.39,364.00 90.98,364.00 C88.99,364.00 77.64,373.52 73.06,379.02 C57.65,397.54 52.63,423.36 60.08,445.75 ZM 117.26 389.19 C119.18,390.21 122.74,390.92 126.00,390.94 C139.44,390.98 148.82,380.84 147.75,367.43 C146.80,355.63 138.08,347.47 126.50,347.55 C114.22,347.63 104.00,357.47 104.00,369.19 C104.00,376.65 109.60,385.10 117.26,389.19 ZM 376.50 60.10 C386.33,64.65 398.71,60.92 404.39,51.69 C406.82,47.75 407.36,45.78 407.39,40.69 C407.49,21.49 386.42,11.39 372.01,23.73 C366.61,28.34 364.00,33.65 364.00,39.99 C364.00,49.02 368.62,56.46 376.50,60.10 ZM 285.55 266.55 L 283.09 269.00 L 246.30 268.97 C204.77,268.94 204.06,268.81 204.02,261.81 C203.98,256.11 204.75,256.00 246.22,256.00 C282.67,256.00 284.07,256.07 286.00,258.00 C288.68,260.68 288.52,263.57 285.55,266.55 ZM 286.00 300.00 C284.07,301.93 282.67,302.00 245.65,302.00 C209.78,302.00 207.20,301.88 205.65,300.17 C203.34,297.61 203.50,292.34 205.93,291.04 C207.17,290.37 221.74,290.00 246.38,290.00 L 284.89 290.00 L 286.44 292.22 C288.54,295.21 288.40,297.60 286.00,300.00 ZM 286.96 231.75 L 285.42 234.50 L 246.38 234.76 C209.54,235.01 207.24,234.92 205.67,233.18 C203.56,230.86 203.52,226.62 205.58,224.56 C206.98,223.16 211.71,223.01 246.29,223.24 L 285.42 223.50 L 286.96 226.25 C288.35,228.72 288.35,229.28 286.96,231.75 ZM 285.43 200.43 C284.07,201.79 279.72,202.00 253.15,202.00 C218.73,202.00 218.00,201.87 218.00,195.57 C218.00,189.68 218.65,189.54 247.30,189.15 C278.19,188.73 285.55,189.29 287.09,192.17 C288.37,194.55 287.62,198.23 285.43,200.43 Z" fill="rgb(3,3,5)"/>
<path d="M 372.00 163.51 C368.42,162.79 363.59,161.43 361.25,160.49 L 357.00 158.78 L 357.00 146.11 C357.00,131.84 356.02,129.00 351.10,129.00 C346.21,129.00 345.00,131.55 345.00,141.83 C345.00,146.87 344.75,151.00 344.44,151.00 C344.13,151.00 341.65,149.09 338.94,146.75 L 334.00 142.50 L 334.01 133.50 C334.02,128.55 334.63,122.25 335.36,119.50 C339.69,103.33 351.40,91.74 367.69,87.49 C375.47,85.47 396.63,85.50 404.54,87.54 C416.91,90.74 427.27,99.53 433.19,111.86 C436.12,117.95 436.42,119.50 436.81,130.56 L 437.23 142.63 L 427.50 151.21 L 427.00 141.76 C426.41,130.68 425.36,128.76 420.11,129.20 C414.91,129.64 414.03,132.16 414.01,146.68 L 414.00 158.86 L 408.54 160.90 C397.61,164.99 384.16,165.95 372.00,163.51 ZM 116.00 492.87 C112.97,492.37 107.75,491.06 104.38,489.95 L 98.26 487.92 L 97.80 474.52 C97.30,459.67 96.66,458.00 91.50,458.00 C86.63,458.00 85.56,460.08 85.00,470.68 L 84.50 480.06 L 74.50 471.25 L 74.63 461.80 C74.84,446.03 78.92,435.93 88.69,427.00 C98.96,417.61 107.08,415.00 126.00,415.00 C145.17,415.00 155.84,418.59 165.20,428.21 C174.00,437.24 178.00,448.09 178.00,462.91 L 178.00 470.73 L 167.50 480.50 L 167.00 470.21 C166.46,459.18 165.90,458.04 160.90,458.02 C155.84,457.99 155.00,460.36 155.00,474.64 L 155.00 487.63 L 148.75 489.79 C137.45,493.70 127.08,494.68 116.00,492.87 ZM 396.07 383.39 C396.86,382.22 399.66,378.62 402.30,375.39 C432.89,337.91 448.48,287.15 444.04,239.50 C442.69,225.10 441.58,222.29 437.00,221.81 L 433.96 221.50 L 440.19 211.23 L 446.42 200.96 L 465.04 219.50 L 462.52 221.33 C460.01,223.16 460.00,223.25 459.98,238.83 C459.92,285.61 445.48,327.25 417.25,362.00 C411.27,369.35 393.26,387.54 396.07,383.39 ZM 56.29 301.75 L 47.12 292.50 L 49.56 290.70 C51.95,288.94 52.00,288.62 52.00,274.41 C52.00,266.44 52.47,255.55 53.04,250.21 C57.51,208.53 75.85,169.12 104.89,138.79 C115.33,127.89 119.79,124.72 112.08,133.69 C80.18,170.79 63.25,224.22 67.94,273.00 C69.10,285.16 70.62,289.98 73.27,290.02 C73.95,290.02 75.12,290.42 75.87,290.90 C76.94,291.58 76.01,293.81 71.49,301.38 C68.34,306.67 65.69,311.00 65.61,311.00 C65.53,311.00 61.33,306.84 56.29,301.75 ZM 117.26 389.19 C109.60,385.10 104.00,376.65 104.00,369.19 C104.00,357.47 114.22,347.63 126.50,347.55 C138.08,347.47 146.80,355.63 147.75,367.43 C148.82,380.84 139.44,390.98 126.00,390.94 C122.74,390.92 119.18,390.21 117.26,389.19 ZM 376.50 60.10 C368.62,56.46 364.00,49.02 364.00,39.99 C364.00,33.65 366.61,28.34 372.01,23.73 C386.42,11.39 407.49,21.49 407.39,40.69 C407.36,45.78 406.82,47.75 404.39,51.69 C398.71,60.92 386.33,64.65 376.50,60.10 Z" fill="rgb(42,158,238)"/>
<path d="M 214.00 334.00 L 306.85 334.00 L 308.93 331.37 C310.98,328.76 311.00,328.03 311.00,259.37 L 311.00 190.00 L 319.00 190.00 L 319.00 343.00 L 214.00 343.00 ZM 318.96 115.25 C317.68,111.21 316.61,104.45 316.28,98.41 C315.57,85.43 317.58,76.07 323.73,63.69 C327.49,56.11 329.80,53.02 336.93,46.00 C341.67,41.33 346.95,36.72 348.64,35.78 L 351.72 34.05 L 351.77 41.02 C351.85,53.86 359.27,65.30 371.23,71.01 L 376.97 73.75 L 371.23 74.41 C348.64,77.00 328.22,95.13 323.72,116.59 C323.10,119.57 322.25,122.00 321.83,122.00 C321.42,122.00 320.12,118.96 318.96,115.25 ZM 447.77 116.55 C444.90,105.58 441.19,99.15 432.91,90.77 C423.71,81.45 414.12,76.36 402.66,74.71 L 395.37 73.66 L 401.10 70.79 C411.84,65.42 418.87,54.53 419.78,41.84 C420.05,38.08 420.63,35.00 421.08,35.00 C423.07,35.00 434.89,45.06 439.28,50.50 C444.99,57.57 451.35,70.07 453.53,78.50 C456.59,90.28 455.36,108.79 450.78,120.00 L 449.50 123.14 ZM 189.00 448.55 C189.00,444.82 184.70,433.77 181.03,428.05 C172.32,414.47 152.92,403.06 138.50,403.01 L 134.50 403.00 L 140.50 400.12 C152.48,394.36 160.24,382.56 160.35,369.92 L 160.42 363.16 L 163.46 364.71 C165.13,365.56 170.56,370.36 175.53,375.38 C185.80,385.76 190.67,394.35 194.20,408.31 C196.78,418.51 196.27,433.79 193.01,444.25 C190.89,451.06 189.00,453.08 189.00,448.55 ZM 60.08 445.75 C52.63,423.36 57.65,397.54 73.06,379.02 C77.64,373.52 88.99,364.00 90.98,364.00 C91.39,364.00 91.96,367.15 92.23,371.01 C93.17,384.07 100.61,394.96 112.25,400.31 L 117.01 402.49 L 109.50 403.65 C95.76,405.78 82.49,413.59 74.45,424.28 C68.39,432.33 66.25,436.67 64.07,445.26 L 62.27 452.33 Z" fill="rgb(168,196,207)"/>
<path d="M 0.00 256.00 L 0.00 0.00 L 256.00 0.00 L 512.00 0.00 L 512.00 256.00 L 512.00 512.00 L 256.00 512.00 L 0.00 512.00 L 0.00 256.00 ZM 142.79 504.42 C163.98,500.06 183.16,487.02 195.31,468.72 C210.28,446.16 212.71,415.76 201.56,390.54 C193.51,372.33 175.82,355.23 157.24,347.68 C153.87,346.31 149.40,343.82 147.31,342.14 C142.11,337.97 137.01,336.02 129.54,335.32 C121.39,334.56 111.13,337.51 105.48,342.25 C103.29,344.09 98.36,346.90 94.52,348.50 C57.21,364.10 36.96,405.18 47.07,444.75 C54.58,474.15 79.50,497.69 110.24,504.43 C118.87,506.32 133.56,506.31 142.79,504.42 ZM 287.97 443.49 C312.21,441.96 341.31,433.40 364.87,420.88 C430.04,386.23 471.26,319.05 472.30,245.76 L 472.50 232.00 L 477.25 232.00 C480.67,232.00 482.56,231.44 484.00,230.00 C488.28,225.72 487.19,224.01 467.33,203.90 C448.76,185.10 447.10,183.87 442.60,185.60 C441.75,185.93 435.64,195.09 429.02,205.96 C415.61,228.02 414.72,230.77 420.10,233.55 C421.93,234.50 424.89,235.02 427.35,234.83 L 431.50 234.50 L 432.29 243.00 C433.22,253.03 432.42,271.07 430.52,283.00 C426.37,309.12 417.04,332.79 401.89,355.60 C391.85,370.71 370.71,391.85 355.59,401.90 C331.81,417.69 305.84,427.75 280.29,431.05 C269.94,432.39 267.00,433.90 267.00,437.87 C267.00,442.14 271.04,445.09 276.00,444.43 C277.38,444.24 282.76,443.82 287.97,443.49 ZM 330.44 352.78 C331.82,350.81 332.00,340.94 332.00,266.28 C332.00,167.74 333.45,178.00 319.50,178.00 L 311.00 178.00 L 311.00 169.50 C311.00,155.70 317.76,157.00 245.95,157.00 L 184.91 157.00 L 182.45 159.45 L 180.00 161.91 L 180.00 245.32 C180.00,343.62 178.64,334.00 192.57,334.00 L 201.00 334.00 L 201.00 341.87 C201.00,348.31 201.37,350.21 203.07,352.37 L 205.15 355.00 L 267.02 355.00 L 328.89 355.00 L 330.44 352.78 ZM 69.25 326.93 C71.65,325.84 96.00,286.62 96.00,283.85 C96.00,283.08 95.30,281.44 94.44,280.22 C93.13,278.35 91.95,278.00 87.00,278.00 L 81.12 278.00 L 80.44 273.44 C79.35,266.18 80.62,234.33 82.37,224.85 C86.27,203.83 96.36,178.14 107.55,160.80 C134.08,119.65 177.10,90.96 224.36,82.89 C242.55,79.79 243.57,79.45 245.00,76.00 C246.04,73.48 245.98,72.62 244.60,70.51 C242.67,67.56 238.90,67.32 221.86,69.05 C201.92,71.08 182.64,76.03 163.00,84.17 C125.19,99.83 90.57,129.79 69.00,165.50 C50.37,196.35 40.00,232.96 40.00,267.92 L 40.00 279.75 L 34.93 280.23 C32.13,280.50 29.15,281.42 28.30,282.27 C24.60,285.98 26.06,288.23 44.48,307.22 C59.17,322.37 64.81,327.63 66.70,327.96 C66.81,327.98 67.96,327.52 69.25,326.93 ZM 405.00 174.95 C431.39,168.64 453.66,148.79 462.94,123.31 C474.16,92.50 466.07,58.30 442.10,35.26 C435.77,29.17 424.25,21.61 417.39,19.04 C414.24,17.87 409.98,15.57 407.91,13.93 C400.99,8.45 395.40,6.57 386.00,6.57 C376.69,6.57 371.15,8.41 364.17,13.79 C362.15,15.35 356.56,18.49 351.74,20.77 C340.74,25.98 335.26,29.74 327.79,37.21 C312.33,52.67 303.99,73.18 304.01,95.71 C304.04,140.43 340.47,176.74 385.50,176.94 C393.25,176.97 399.01,176.38 405.00,174.95 ZM 193.00 246.00 L 193.00 170.00 L 245.75 170.00 L 298.50 170.00 L 298.24 246.00 L 297.98 322.00 L 245.49 322.00 L 193.00 322.00 L 193.00 246.00 ZM 286.00 300.00 C288.40,297.60 288.54,295.21 286.44,292.22 L 284.89 290.00 L 246.38 290.00 C221.74,290.00 207.17,290.37 205.93,291.04 C203.50,292.34 203.34,297.61 205.65,300.17 C207.20,301.88 209.78,302.00 245.65,302.00 C282.67,302.00 284.07,301.93 286.00,300.00 ZM 285.55 266.55 C288.52,263.57 288.68,260.68 286.00,258.00 C284.07,256.07 282.67,256.00 246.22,256.00 C204.75,256.00 203.98,256.11 204.02,261.81 C204.06,268.81 204.77,268.94 246.30,268.97 L 283.09 269.00 L 285.55 266.55 ZM 286.96 231.75 C288.35,229.28 288.35,228.72 286.96,226.25 L 285.42 223.50 L 246.29 223.24 C211.71,223.01 206.98,223.16 205.58,224.56 C203.52,226.62 203.56,230.86 205.67,233.18 C207.24,234.92 209.54,235.01 246.38,234.76 L 285.42 234.50 L 286.96 231.75 ZM 285.43 200.43 C287.62,198.23 288.37,194.55 287.09,192.17 C285.55,189.29 278.19,188.73 247.30,189.15 C218.65,189.54 218.00,189.68 218.00,195.57 C218.00,201.87 218.73,202.00 253.15,202.00 C279.72,202.00 284.07,201.79 285.43,200.43 Z" fill="rgb(251,253,254)"/>
</g>
</svg>